#!OML:ASF E:\inclinewalkrobotboard\Project 1\Capture day 1\Session 1\subject1.ASF
:FULLY-SPECIFIED
:DEGREES
1
root 7.12843 16.647 36.4817 -170.391 2.68607 178.967
lowerback -7.6037 1.19907 -7.37844
upperback 1.4082 2.2461 1.25958
thorax 5.42688 0.852516 5.75171
lowerneck -6.92275 -0.166091 -3.9762
upperneck 29.1558 -4.44878 6.68645
head 10.6858 -2.77104 2.41411
rclavicle 5.59082e-015 7.15625e-015
rhumerus -51.1218 -33.5715 -60.6525
rradius 24.0801
rwrist 16.0183
rhand -12.8538 -39.1099
rfingers 7.12502
rthumb 13.2341 -68.6698
lclavicle 5.59082e-015 7.15625e-015
lhumerus -29.0191 8.02381 86.0431
lradius 19.1425
lwrist -27.4057
lhand -24.0423 -18.9317
lfingers 7.12502
lthumb 2.43653 11.0341
rfemur -5.64983 2.25718 19.6345
rtibia 8.52992
rfoot -14.2253 -1.84751
rtoes -25.0079
lfemur -6.65877 -8.29919 -22.197
ltibia 10.5944
lfoot -15.6829 4.95964
ltoes -66.1458
2
root 7.12877 16.6464 36.4791 -170.367 2.69827 178.98
lowerback -7.65666 1.15226 -7.41608
upperback 1.4021 2.187 1.33741
thorax 5.45557 0.819609 5.85148
lowerneck -6.80931 -0.0826819 -4.07625
upperneck 29.2861 -4.34265 6.62068
head 10.7049 -2.75515 2.42033
rclavicle -4.22417e-016 4.77083e-015
rhumerus -51.1204 -33.425 -60.7403
rradius 24.1314
rwrist 16.0467
rhand -13.1145 -38.9876
rfingers 7.12502
rthumb 12.9829 -68.5636
lclavicle -4.22417e-016 4.77083e-015
lhumerus -29.1764 8.50451 85.9464
lradius 18.9557
lwrist -27.711
lhand -23.9714 -18.702
lfingers 7.12502
lthumb 2.50498 11.263
rfemur -5.69806 2.35919 19.653
rtibia 8.63178
rfoot -14.3282 -1.92388
rtoes -24.9005
lfemur -6.68851 -8.25139 -22.1593
ltibia 10.6099
lfoot -15.7286 4.93901
ltoes -66.1296
3
root 7.12877 16.646 36.4763 -170.32 2.70298 179.036
lowerback -7.74567 1.1379 -7.38627
upperback 1.39621 2.16885 1.39151
thorax 5.5017 0.808748 5.89364
lowerneck -6.67371 -0.0453367 -4.03367
upperneck 29.3612 -4.29184 6.47144
head 10.6989 -2.75548 2.3649
rclavicle 1.31446e-014 1.82882e-014
rhumerus -51.1663 -33.283 -60.8972
rradius 24.2176
rwrist 16.0015
rhand -12.2899 -38.5063
rfingers 7.12502
rthumb 13.7776 -68.0301
lclavicle 1.31446e-014 1.82882e-014
lhumerus -29.3008 8.86343 85.8285
lradius 18.7256
lwrist -28.0142
lhand -23.8356 -18.5745
lfingers 7.12502
lthumb 2.63617 11.389
rfemur -5.75603 2.35674 19.7212
rtibia 8.67271
rfoot -14.3557 -1.98115
rtoes -25.3422
lfemur -6.75171 -8.15652 -22.0637
ltibia 10.6365
lfoot -15.7528 4.7994
ltoes -66.0029
4
root 7.12778 16.6452 36.4699 -170.265 2.69063 179.038
lowerback -7.87315 1.14846 -7.3849
upperback 1.39812 2.19281 1.39514
thorax 5.57251 0.817273 5.90473
lowerneck -6.68886 -0.0455591 -3.95975
upperneck 29.4683 -4.31648 6.40928
head 10.7418 -2.77098 2.32638
rclavicle -1.56294e-014 1.09332e-014
rhumerus -51.2199 -33.1948 -61.151
rradius 24.3673
rwrist 15.7503
rhand -12.3191 -38.5019
rfingers 7.12502
rthumb 13.7495 -68.0276
lclavicle -1.56294e-014 1.09332e-014
lhumerus -29.4648 8.95831 85.7563
lradius 18.5761
lwrist -28.21
lhand -23.7885 -18.7443
lfingers 7.12502
lthumb 2.68167 11.2186
rfemur -5.7773 2.24072 19.72
rtibia 8.67317
rfoot -14.4142 -1.9692
rtoes -25.824
lfemur -6.7606 -8.10822 -22.0624
ltibia 10.5872
lfoot -15.7021 4.74693
ltoes -66.0253
5
root 7.12419 16.6425 36.4619 -170.211 2.68278 178.959
lowerback -8.0141 1.16475 -7.41482
upperback 1.40228 2.23163 1.34776
thorax 5.65206 0.832505 5.88163
lowerneck -6.75279 -0.0520283 -3.89519
upperneck 29.5676 -4.36874 6.43776
head 10.7956 -2.78775 2.319
rclavicle -5.76476e-015 -8.54774e-015
rhumerus -51.3263 -33.2921 -61.3019
rradius 24.5183
rwrist 15.7114
rhand -13.1351 -38.9999
rfingers 7.12502
rthumb 12.963 -68.5772
lclavicle -5.76476e-015 -8.54774e-015
lhumerus -29.6561 8.89824 85.7143
lradius 18.4902
lwrist -28.3077
lhand -23.8459 -19.1104
lfingers 7.12502
lthumb 2.6262 10.8532
rfemur -5.7881 2.0694 19.5996
rtibia 8.66153
rfoot -14.4831 -1.84157
rtoes -25.766
lfemur -6.75382 -8.15386 -22.2023
ltibia 10.5452
lfoot -15.6729 4.83167
ltoes -66.1194
6
root 7.12029 16.6389 36.4587 -170.167 2.67074 178.887
lowerback -8.09058 1.13568 -7.44419
upperback 1.4039 2.20274 1.33603
thorax 5.70141 0.815145 5.88571
lowerneck -6.64183 -0.00267543 -3.93621
upperneck 29.5128 -4.31208 6.50986
head 10.7508 -2.76251 2.35933
rclavicle -5.76476e-015 1.17283e-014
rhumerus -51.3301 -33.3156 -61.4192
rradius 24.5637
rwrist 15.8463
rhand -12.9621 -39.1907
rfingers 7.12502
rthumb 13.1297 -68.7574
lclavicle -5.76476e-015 1.17283e-014
lhumerus -29.8186 9.16345 85.6141
lradius 18.3581
lwrist -28.5824
lhand -23.8825 -19.1316
lfingers 7.12502
lthumb 2.59085 10.8324
rfemur -5.84339 1.98758 19.4886
rtibia 8.68435
rfoot -14.4521 -1.78934
rtoes -25.9939
lfemur -6.80427 -8.20905 -22.3214
ltibia 10.5762
lfoot -15.6688 4.91512
ltoes -66.1782
7
root 7.11638 16.6366 36.4571 -170.155 2.65474 178.827
lowerback -8.10207 1.09756 -7.48287
upperback 1.39876 2.15611 1.34512
thorax 5.70829 0.790517 5.91231
lowerneck -6.50445 0.0623279 -3.9743
upperneck 29.5249 -4.25908 6.57803
head 10.7261 -2.74596 2.39708
rclavicle 2.06239e-015 -9.93923e-015
rhumerus -51.2879 -33.2203 -61.5726
rradius 24.5541
rwrist 15.8076
rhand -12.5847 -38.9298
rfingers 7.12502
rthumb 13.4935 -68.4727
lclavicle 2.06239e-015 -9.93923e-015
lhumerus -29.9732 9.58288 85.4767
lradius 18.1673
lwrist -28.9408
lhand -23.8297 -18.9622
lfingers 7.12502
lthumb 2.64183 11.0011
rfemur -5.87438 1.97879 19.399
rtibia 8.72469
rfoot -14.4215 -1.78678
rtoes -26.0201
lfemur -6.80265 -8.24288 -22.4189
ltibia 10.5552
lfoot -15.6681 4.94338
ltoes -66.3053
8
root 7.11201 16.6362 36.4535 -170.131 2.64557 178.83
lowerback -8.15025 1.07132 -7.46247
upperback 1.41113 2.12181 1.36969
thorax 5.75401 0.771307 5.92521
lowerneck -6.43829 0.0658995 -4.00406
upperneck 29.5254 -4.29669 6.67488
head 10.7181 -2.76271 2.43317
rclavicle 1.69961e-014 5.56597e-015
rhumerus -51.213 -33.2852 -61.6142
rradius 24.3619
rwrist 16.2523
rhand -12.6479 -38.5591
rfingers 7.12502
rthumb 13.4326 -68.106
lclavicle 1.69961e-014 5.56597e-015
lhumerus -30.0815 9.99725 85.3418
lradius 17.9377
lwrist -29.3049
lhand -23.7864 -18.9299
lfingers 7.12502
lthumb 2.68361 11.033
rfemur -5.89371 1.93359 19.3819
rtibia 8.75716
rfoot -14.4227 -1.7625
rtoes -26.018
lfemur -6.80511 -8.2908 -22.4471
ltibia 10.5425
lfoot -15.7123 4.89631
ltoes -66.2806
9
root 7.10926 16.6366 36.4517 -170.044 2.61845 178.936
lowerback -8.24631 1.04869 -7.35315
upperback 1.42769 2.08491 1.42925
thorax 5.83317 0.751576 5.92655
lowerneck -6.46031 0.0519638 -4.06205
upperneck 29.5208 -4.32848 6.74613
head 10.7253 -2.77541 2.46553
rclavicle 2.98177e-015 -6.55989e-015
rhumerus -51.082 -33.4238 -61.6731
rradius 24.0064
rwrist 17.4792
rhand -13.2548 -38.0923
rfingers 7.12502
rthumb 12.8476 -67.6769
lclavicle 2.98177e-015 -6.55989e-015
lhumerus -30.1154 10.3761 85.245
lradius 17.7263
lwrist -29.5907
lhand -23.7685 -18.8449
lfingers 7.12502
lthumb 2.70094 11.1178
rfemur -5.99313 1.90513 19.5009
rtibia 8.78218
rfoot -14.3865 -1.83979
rtoes -26.9349
lfemur -6.93467 -8.33577 -22.3154
ltibia 10.6112
lfoot -15.7468 4.85237
ltoes -66.1418
10
root 7.1079 16.6365 36.4496 -169.95 2.64369 179.051
lowerback -8.3285 1.07017 -7.24807
upperback 1.41414 2.10616 1.47381
thorax 5.86369 0.763961 5.91987
lowerneck -6.47131 0.0501705 -4.0377
upperneck 29.6192 -4.36365 6.73584
head 10.7668 -2.7961 2.45341
rclavicle 9.24349e-015 4.37326e-015
rhumerus -51.1518 -33.7335 -61.4785
rradius 24.158
rwrist 17.0423
rhand -12.5528 -38.3788
rfingers 7.12502
rthumb 13.5243 -67.9196
lclavicle 9.24349e-015 4.37326e-015
lhumerus -30.2059 10.5771 85.1812
lradius 17.5908
lwrist -29.73
lhand -23.7132 -18.4658
lfingers 7.12502
lthumb 2.75432 11.4962
rfemur -6.11104 1.95172 19.635
rtibia 8.79517
rfoot -14.362 -1.91604
rtoes -27.5911
lfemur -7.0385 -8.34032 -22.1616
ltibia 10.6384
lfoot -15.7926 4.86506
ltoes -66.0705
